<?xml version="1.0" encoding="UTF-8"?>
<svg width="1510px" height="556px" viewBox="0 0 1510 556" version="1.1" xmlns="http://www.w3.org/2000/svg" xmlns:xlink="http://www.w3.org/1999/xlink">
    <!-- Generator: Sketch 56.3 (81716) - https://sketch.com -->
    <title>1️⃣/Logos/UI/Logo-scor-distance Copy 1</title>
    <desc>Created with Sketch.</desc>
    <g id="1️⃣/Logos/UI/Logo-scor-distance-Copy-1" stroke="none" stroke-width="1" fill="none" fill-rule="evenodd">
        <g id="Logo+baseline" transform="translate(88.000000, 88.000000)" fill="#FFFFFF">
            <path d="M1333,377.481457 L1321.98058,377.481457 L1290.04226,344.306278 L1290.04226,377.481457 L1282.05268,377.481457 L1282.05268,282.519542 L1290.04226,282.519542 L1290.04226,339.369013 L1318.93074,312.907395 L1329.2002,312.907395 L1297.64186,341.520949 L1333,377.481457 Z M1250.50433,318.225294 C1242.26476,318.225294 1236.56506,320.755867 1236.56506,328.984974 C1236.56506,341.015434 1268.37339,339.496891 1268.37339,360.64061 C1268.37339,374.315493 1255.57407,379 1245.81458,379 C1239.6049,379 1233.39523,378.240728 1227.69553,375.961914 L1228.45549,368.110445 C1233.26524,370.517137 1239.09493,372.163557 1245.30461,372.163557 C1252.91421,372.163557 1259.62385,367.983567 1259.62385,360.64061 C1259.62385,345.319306 1228.57548,347.725998 1228.57548,328.984974 C1228.57548,316.197239 1238.97494,311.387852 1249.61438,311.387852 C1253.0342,311.387852 1259.88384,312.147124 1265.58354,314.29906 L1264.82358,321.26338 C1260.6438,319.363203 1254.9341,318.225294 1250.50433,318.225294 Z M1205.89667,295.685914 L1213.87626,295.685914 L1213.87626,285.050115 L1205.89667,285.050115 L1205.89667,295.685914 Z M1205.89667,377.481457 L1213.87626,377.481457 L1213.87626,312.907395 L1205.89667,312.907395 L1205.89667,377.481457 Z M1154.95935,296.699941 L1145.95982,296.699941 L1145.95982,328.224703 L1155.20934,328.224703 C1165.4788,328.224703 1177.25818,324.302465 1177.25818,312.020246 C1177.25818,297.586091 1166.99872,296.699941 1154.95935,296.699941 Z M1166.35875,332.404693 L1166.35875,332.659449 C1173.45838,333.542602 1174.9783,337.341958 1177.76815,343.295247 L1192.84736,377.481457 L1183.21787,377.481457 L1170.41854,347.599119 C1165.3488,336.20305 1161.549,335.822415 1153.17944,335.822415 L1145.95982,335.822415 L1145.95982,377.481457 L1137.21028,377.481457 L1137.21028,289.102228 L1160.02908,289.102228 C1175.73826,289.102228 1186.00772,295.812792 1186.00772,312.020246 C1186.00772,323.416315 1177.25818,331.013028 1166.35875,332.404693 Z M1089.44279,289.230106 C1087.79288,288.342957 1085.383,287.837442 1083.10312,287.837442 C1072.2037,287.837442 1073.34364,299.611148 1073.34364,307.33474 L1073.34364,312.907395 L1087.92287,312.907395 L1087.92287,319.744837 L1073.34364,319.744837 L1073.34364,377.481457 L1065.36405,377.481457 L1065.36405,319.744837 L1052.30474,319.744837 L1052.30474,312.907395 L1065.36405,312.907395 L1065.36405,308.221889 C1065.36405,294.674883 1065.86403,281 1082.47316,281 C1085.00302,281 1088.42284,281.378637 1089.95276,282.265786 L1089.44279,289.230106 Z M1015.30668,318.225294 C1001.36742,318.225294 993.888808,330.252758 993.888808,345.192428 C993.888808,360.132098 1001.36742,372.163557 1015.30668,372.163557 C1029.24595,372.163557 1036.72556,360.132098 1036.72556,345.192428 C1036.72556,330.252758 1029.24595,318.225294 1015.30668,318.225294 Z M1015.30668,379 C994.394781,379 985.143267,362.792546 985.143267,345.192428 C985.143267,327.592309 994.394781,311.387852 1015.30668,311.387852 C1036.21559,311.387852 1045.4651,327.592309 1045.4651,345.192428 C1045.4651,362.792546 1036.21559,379 1015.30668,379 Z M915.699914,318.225294 C903.915533,318.225294 896.690912,329.999001 896.690912,340.634799 L932.177048,340.634799 C932.177048,329.366608 927.614288,318.225294 915.699914,318.225294 Z M896.690912,347.471242 C896.690912,361.146125 904.039526,372.163557 917.980794,372.163557 C923.812488,372.163557 932.301042,369.756866 936.102842,367.350174 L936.102842,375.453402 C930.529135,377.732216 923.303514,379 917.347827,379 C895.929952,379 887.947371,364.565845 887.947371,345.192428 C887.947371,325.440374 898.844799,311.387852 915.19394,311.387852 C933.442982,311.387852 940.919589,326.072767 940.919589,343.419129 L940.919589,347.471242 L896.690912,347.471242 Z M865.393555,318.225294 C849.804374,318.225294 841.061833,329.493486 841.061833,345.192428 C841.061833,359.881338 849.931367,372.163557 864.506602,372.163557 C869.574336,372.163557 874.26409,371.021653 879.080837,369.248354 L879.840797,376.721186 C874.391083,378.619365 869.323349,379 863.239669,379 C842.45476,379 832.315293,363.171183 832.315293,345.192428 C832.315293,325.313495 845.11462,311.387852 864.251615,311.387852 C871.983209,311.387852 877.559917,313.158154 879.840797,313.918425 L879.20783,321.515139 C874.897056,319.616959 869.701329,318.225294 865.393555,318.225294 Z M809.761477,377.481457 L809.761477,338.228108 C809.761477,326.072767 805.453703,318.225294 794.427282,318.225294 C779.852048,318.225294 775.290287,331.013028 775.290287,341.775705 L775.290287,377.481457 L767.307706,377.481457 L767.307706,328.100822 C767.307706,323.161559 767.307706,318.098416 766.798733,312.907395 L774.530327,312.907395 L774.530327,324.426346 L774.784314,324.426346 C777.444174,318.602932 782.260921,311.387852 795.696216,311.387852 C811.664377,311.387852 817.747058,322.023651 817.747058,336.20305 L817.747058,377.481457 L809.761477,377.481457 Z M727.516796,318.225294 C715.732415,318.225294 708.506794,329.999001 708.506794,340.634799 L743.990931,340.634799 C743.990931,329.366608 739.42817,318.225294 727.516796,318.225294 Z M708.506794,347.471242 C708.506794,361.146125 715.856408,372.163557 729.797676,372.163557 C735.62637,372.163557 744.117924,369.756866 747.919724,367.350174 L747.919724,375.453402 C742.346017,377.732216 735.120397,379 729.164709,379 C707.746834,379 699.764253,364.565845 699.764253,345.192428 C699.764253,325.440374 710.660681,311.387852 727.010822,311.387852 C745.259864,311.387852 752.736471,326.072767 752.736471,343.419129 L752.736471,347.471242 L708.506794,347.471242 Z M677.080444,295.685914 L685.066025,295.685914 L685.066025,285.050115 L677.080444,285.050115 L677.080444,295.685914 Z M677.080444,377.481457 L685.066025,377.481457 L685.066025,312.907395 L677.080444,312.907395 L677.080444,377.481457 Z M649.712882,318.225294 C634.1237,318.225294 625.380159,329.493486 625.380159,345.192428 C625.380159,359.881338 634.250694,372.163557 648.824928,372.163557 C653.892662,372.163557 658.582416,371.021653 663.399163,369.248354 L664.160123,376.721186 C658.709409,378.619365 653.641675,379 647.558995,379 C626.774086,379 616.634619,363.171183 616.634619,345.192428 C616.634619,325.313495 629.436946,311.387852 648.570942,311.387852 C656.301536,311.387852 661.878243,313.158154 664.160123,313.918425 L663.526156,321.515139 C659.215383,319.616959 654.020655,318.225294 649.712882,318.225294 Z M583.941335,295.180398 C574.816815,295.180398 564.80734,298.978755 564.80734,310.373825 C564.80734,328.100822 605.359211,328.224703 605.359211,354.054927 C605.359211,371.908802 590.024016,379 576.337735,379 C567.722187,379 561.00554,377.226701 556.315786,375.201643 L557.203739,366.210268 C562.399467,369.503109 568.482147,371.403287 576.718715,371.403287 C587.619142,371.403287 596.61667,365.831631 596.61667,353.294656 C596.61667,335.949294 556.061799,333.797358 556.061799,310.627582 C556.061799,296.445185 568.482147,287.582686 584.068329,287.582686 C588.379102,287.582686 595.346736,288.216078 601.430417,290.494893 L600.03649,298.47324 C596.107697,296.318307 589.900023,295.180398 583.941335,295.180398 Z M461.907744,333.542602 C453.544183,336.836443 445.306616,344.1784 445.306616,353.930047 C445.306616,365.958509 455.192096,372.163557 465.836537,372.163557 C473.819118,372.163557 482.565659,368.110445 487.633393,361.905397 L461.907744,333.542602 Z M481.804699,307.207862 C481.804699,298.850878 476.736965,294.420128 469.257358,294.420128 C461.78075,294.420128 454.683123,298.723999 454.683123,307.33474 C454.683123,314.29906 459.88085,319.995596 464.694597,325.313495 C472.426191,321.642017 481.804699,317.589904 481.804699,307.207862 Z M512.981062,377.226701 L501.829647,377.226701 L492.45014,367.350174 C485.225519,375.453402 475.976005,379 465.582551,379 C450.629336,379 436.561075,371.403287 436.561075,354.308684 C436.561075,340.761678 445.685596,333.164964 457.472977,328.606337 C452.023263,322.402288 445.939582,315.691724 445.939582,306.829225 C445.939582,294.166371 458.105943,287.582686 469.766331,287.582686 C480.283779,287.582686 490.54824,293.4061 490.54824,305.816197 C490.54824,319.616959 479.902799,324.554223 469.257358,329.871124 L492.577133,355.828226 C498.15184,347.852876 500.181734,338.482863 500.181734,328.984974 L507.785335,328.984974 C507.785335,340.380044 504.489508,352.029869 497.899854,360.892369 L512.981062,377.226701 Z M385.872737,372.163557 C388.914577,372.163557 390.94447,371.530165 393.225351,370.644015 L393.731324,377.226701 C391.831424,377.985973 387.90263,379 383.973836,379 C369.780582,379 369.271608,369.248354 369.271608,357.474647 L369.271608,319.744837 L356.600274,319.744837 L356.600274,312.907395 L369.271608,312.907395 L369.271608,297.332334 L377.257189,294.548005 L377.257189,312.907395 L391.956417,312.907395 L391.956417,319.744837 L377.257189,319.744837 L377.257189,361.527759 C377.257189,367.350174 379.411076,372.163557 385.872737,372.163557 Z M346.590799,319.744837 C333.918465,319.744837 330.495645,333.924236 330.495645,345.574062 L330.495645,377.481457 L322.513064,377.481457 L322.513064,327.34155 C322.513064,320.250352 322.513064,317.589904 322.004091,312.907395 L329.989671,312.907395 L329.989671,325.313495 L330.243658,325.313495 C333.158505,318.098416 338.608219,311.387852 346.844786,311.387852 C348.744686,311.387852 351.025567,311.766489 352.419493,312.147124 L352.419493,320.504108 C350.77458,319.995596 348.617693,319.744837 346.590799,319.744837 Z M270.810779,297.459213 L251.54979,346.206455 L289.946774,346.206455 L270.810779,297.459213 Z M302.367122,377.481457 L292.861621,353.803168 L248.252963,353.803168 L238.747463,377.481457 L230.258908,377.481457 L266.502005,289.102228 L276.387486,289.102228 L311.492643,377.481457 L302.367122,377.481457 Z M164.236375,318.225294 C152.448994,318.225294 145.226374,329.999001 145.226374,340.634799 L180.70951,340.634799 C180.70951,329.366608 176.14775,318.225294 164.236375,318.225294 Z M145.226374,347.471242 C145.226374,361.146125 152.575988,372.163557 166.517256,372.163557 C172.34595,372.163557 180.837504,369.756866 184.639304,367.350174 L184.639304,375.453402 C179.061597,377.732216 171.839976,379 165.884289,379 C144.466414,379 136.480833,364.565845 136.480833,345.192428 C136.480833,325.440374 147.380261,311.387852 163.730402,311.387852 C181.979444,311.387852 189.456051,326.072767 189.456051,343.419129 L189.456051,347.471242 L145.226374,347.471242 Z M113.927017,377.481457 L113.927017,338.988378 C113.927017,327.847065 111.77313,318.225294 98.5918226,318.225294 C84.3995679,318.225294 79.4548276,331.645422 79.4548276,342.913613 L79.4548276,377.481457 L71.4722468,377.481457 L71.4722468,282.519542 L79.4548276,282.519542 L79.4548276,323.793953 L79.7098142,323.793953 C83.1326344,316.705752 90.3552552,311.387852 99.860756,311.387852 C117.222844,311.387852 121.912598,322.906804 121.912598,338.860501 L121.912598,377.481457 L113.927017,377.481457 Z M34.8501699,296.699941 L34.8501699,377.481457 L26.107629,377.481457 L26.107629,296.699941 L0,296.699941 L0,289.102228 L60.9577989,289.102228 L60.9577989,296.699941 L34.8501699,296.699941 L34.8501699,296.699941 Z" id="Baseline"></path>
            <path d="M204.045836,1.71948206 C243.805034,5.92610786 296.447888,22.2311616 301.640959,23.8645695 C292.986175,39.1307277 285.839701,60.3840465 267.690959,60.3840465 C254.277193,60.3840465 216.915489,45.8725387 175.251899,45.8725387 C158.116365,45.8725387 124.896516,48.5078101 124.896516,67.1628894 C124.8225,99.341625 295.409674,89.3580199 288.523254,161.44115 C284.443413,204.756485 228.758931,238.233339 153.777471,238.233339 C90.82349,238.233339 28.9827389,216.534637 6,204.460229 C12.5653537,194.051258 14.9878532,190.430136 24.6438442,175.032865 C27.499433,170.389863 32.9145496,167.667517 39.7639619,168.385135 C49.2959273,169.349967 102.098815,191.024649 143.725398,192.16263 C169.502713,192.896262 207.964644,192.30275 210.6602,169.160804 C214.789051,133.449023 52.9306768,142.319669 52.9306768,71.9880483 C52.9306768,35.7157843 99.6013,-9.36507199 204.045836,1.71948206 Z M611.349819,36.9528506 C593.299097,57.5876362 586.252644,69.9472893 565.655397,69.9472893 C544.527041,69.9472893 527.675566,51.4393368 474.835671,51.4393368 C421.29063,51.4393368 388.046776,82.7393151 388.046776,121.584797 C388.046776,174.942788 448.947333,186.843045 474.909686,186.843045 C555.77736,186.843045 632.787239,91.4238004 692.724598,50.512538 C733.076918,21.8718519 775.087581,0 842.565494,0 C940.333653,0 999.231798,55.8071015 999.231798,121.584797 C999.231798,185.539921 937.032973,239 843.047594,239 C766.519814,239 720.071237,217.474447 671.954315,170.645083 L711.886549,134.649057 C732.384776,156.954283 779.463483,186.843045 838.831724,186.843045 C883.746986,186.843045 929.317382,160.986758 929.317382,121.584797 C929.317382,81.428185 895.689448,51.4393368 842.602502,51.4393368 C708.152779,51.4393368 643.889529,238.233339 475.255757,238.233339 C412.636846,238.233339 327.046198,214.010461 317.848301,132.112871 C317.848301,131.16005 317.749281,114.273495 317.848301,112.195704 C322.781318,47.0855842 395.934402,0 477.395199,0 C526.600344,0 577.672875,19.6829652 611.349819,36.9528506 Z M1244.88245,232.641519 C1232.99,229.47479 1222.92792,221.606008 1213.23592,209.977985 C1185.9403,177.094642 1149.66282,133.20181 1140.01083,121.053339 C1170.85719,116.265212 1260.81573,113.369716 1260.81573,73.1880826 C1260.81573,50.3513991 1226.18859,45.6503472 1200.56331,45.6503472 C1129.12858,45.6503472 1119.48659,94.3683384 1109.68457,122.686747 C1109.68457,122.686747 1079.91843,217.647596 1074.74737,234.200864 L1005.98319,234.200864 L1041.41049,121.523744 C1062.82491,47.5179569 1102.84316,0 1205.79439,0 C1268.53733,0 1330,19.6829652 1330,65.7786963 C1330,119.568059 1262.126,137.67967 1223.34801,142.503828 L1314.81687,234.200864 L1257.22499,234.200864 C1252.8741,234.200864 1248.77325,233.680415 1244.88245,232.641519 L1244.88245,232.641519 Z" id="Logo"></path>
        </g>
    </g>
</svg>